<svg width="440" height="113" viewBox="0 0 440 113" fill="none" xmlns="http://www.w3.org/2000/svg">
<g clip-path="url(#clip0_490_496)">
<g clip-path="url(#clip1_490_496)">
<g clip-path="url(#clip2_490_496)">
<g clip-path="url(#clip3_490_496)">
<g clip-path="url(#clip4_490_496)">
<g clip-path="url(#clip5_490_496)">
<g clip-path="url(#clip6_490_496)">
<g clip-path="url(#clip7_490_496)">
<path d="M6.59291 59.2195H2.45149C2.32823 59.2195 2.2666 59.158 2.2666 59.035L2.34056 33.6826C2.34056 33.5842 2.38986 33.535 2.48846 33.535H14.3211C14.4443 33.535 14.506 33.5842 14.506 33.6826V37.8527C14.506 37.9511 14.4567 38.0003 14.3581 38.0003H6.77779V43.7202H14.3581C14.4567 43.7202 14.506 43.7817 14.506 43.9047L14.543 48.0748C14.543 48.1732 14.4813 48.2224 14.3581 48.2224H6.77779V59.035C6.77779 59.158 6.71616 59.2195 6.59291 59.2195ZM22.1972 59.2195H18.0188C17.8955 59.2195 17.8339 59.158 17.8339 59.035L17.8709 33.6826C17.8709 33.5842 17.9202 33.535 18.0188 33.535H22.1602C22.2588 33.535 22.3081 33.5842 22.3081 33.6826L22.3451 59.035C22.3451 59.158 22.2958 59.2195 22.1972 59.2195ZM37.6831 59.2195H25.7396C25.6459 59.2195 25.5991 59.158 25.5991 59.035L25.6286 33.7195C25.6286 33.5965 25.6903 33.535 25.8135 33.535H29.918C30.0412 33.535 30.1029 33.5965 30.1029 33.7195L30.0659 54.6804H37.6831C37.8064 54.6804 37.868 54.7419 37.868 54.8649V59.035C37.868 59.158 37.8064 59.2195 37.6831 59.2195ZM44.6348 59.2195H40.4564C40.3332 59.2195 40.2715 59.158 40.2715 59.035L40.3085 33.6826C40.3085 33.5842 40.3578 33.535 40.4564 33.535H44.5978C44.6964 33.535 44.7457 33.5842 44.7457 33.6826L44.7827 59.035C44.7827 59.158 44.7334 59.2195 44.6348 59.2195ZM52.363 59.2195H48.2216C48.0983 59.2195 48.0367 59.158 48.0367 59.035L48.1106 33.6826C48.1106 33.5842 48.16 33.535 48.2586 33.535H55.3581C57.626 33.535 59.4182 34.2239 60.7346 35.6016C62.0559 36.9793 62.7165 38.849 62.7165 41.2108C62.7165 42.9576 62.3714 44.4706 61.6812 45.7499C60.991 47.0292 60.0912 48.0133 58.9819 48.7021C57.8726 49.391 56.6646 49.7354 55.3581 49.7354H52.5479V59.035C52.5479 59.158 52.4863 59.2195 52.363 59.2195ZM52.5479 37.9634V45.2702H55.3581C56.147 45.2702 56.8298 44.8937 57.4067 44.1409C57.9884 43.393 58.2793 42.4163 58.2793 41.2108C58.2793 40.2514 58.0205 39.4641 57.5028 38.849C56.9851 38.234 56.2702 37.9265 55.3581 37.9265L52.5479 37.9634ZM69.5943 59.2195H65.4159C65.2926 59.2195 65.231 59.158 65.231 59.035L65.268 33.6826C65.268 33.5842 65.3173 33.535 65.4159 33.535H69.5573C69.6559 33.535 69.7052 33.5842 69.7052 33.6826L69.7422 59.035C69.7422 59.158 69.6929 59.2195 69.5943 59.2195ZM77.0266 59.2195H73.3289C73.1317 59.2195 73.0331 59.1334 73.0331 58.9611L72.9961 33.8302C72.9961 33.6334 73.0947 33.535 73.292 33.535H76.6199L82.869 48.0748L82.6841 33.8302C82.6841 33.6334 82.795 33.535 83.0169 33.535H86.6776C86.8255 33.535 86.8995 33.6334 86.8995 33.8302L86.9365 58.998C86.9365 59.1457 86.8748 59.2195 86.7516 59.2195H83.4976L77.1006 45.6392L77.3594 58.9242C77.3594 59.1211 77.2485 59.2195 77.0266 59.2195ZM96.9868 59.5885C95.6556 59.5885 94.4428 59.249 93.3483 58.57C92.2488 57.8959 91.3663 56.9979 90.7007 55.8761C90.0351 54.7591 89.7023 53.5241 89.7023 52.171L89.7393 40.4728C89.7393 39.1197 90.0672 37.8896 90.7229 36.7825C91.3737 35.6754 92.2537 34.7897 93.3631 34.1255C94.4724 33.4612 95.6803 33.1291 96.9868 33.1291C98.318 33.1291 99.5259 33.4612 100.611 34.1255C101.695 34.7897 102.565 35.6754 103.221 36.7825C103.872 37.8896 104.197 39.1197 104.197 40.4728L104.234 52.171C104.234 53.5241 103.909 54.7591 103.258 55.8761C102.602 56.9979 101.727 57.8959 100.633 58.57C99.5333 59.249 98.318 59.5885 96.9868 59.5885ZM96.9868 55.1232C97.7263 55.1232 98.3747 54.8206 98.9318 54.2154C99.484 53.6151 99.7601 52.9337 99.7601 52.171L99.7231 40.4728C99.7231 39.6609 99.4642 38.9721 98.9466 38.4062C98.4289 37.8404 97.7756 37.5574 96.9868 37.5574C96.2226 37.5574 95.5694 37.833 95.027 38.3841C94.4847 38.9401 94.2135 39.6363 94.2135 40.4728V52.171C94.2135 52.9829 94.4847 53.6766 95.027 54.2523C95.5694 54.8329 96.2226 55.1232 96.9868 55.1232Z" fill="#FF1F1F"/>
<path d="M109.929 59.035L114.514 33.6827C114.539 33.5843 114.6 33.535 114.699 33.535H120.06C120.159 33.535 120.221 33.5843 120.245 33.6827L124.646 59.035C124.67 59.158 124.621 59.2195 124.498 59.2195H120.393C120.295 59.2195 120.233 59.158 120.208 59.035L119.802 56.3411H114.773L114.366 59.035C114.341 59.158 114.28 59.2195 114.181 59.2195H110.077C109.978 59.2195 109.929 59.158 109.929 59.035ZM117.176 42.0227L115.512 52.3924H119.062L117.546 42.0227L117.324 40.6573L117.176 42.0227ZM133.779 59.1826L127.16 59.2195C127.037 59.2195 126.975 59.158 126.975 59.035L127.049 33.6827C127.049 33.5843 127.098 33.535 127.197 33.535L134.112 33.4981C135.467 33.4735 136.705 33.7934 137.824 34.4576C138.948 35.1219 139.843 36.0125 140.509 37.1294C141.174 38.2512 141.507 39.4887 141.507 40.8418V51.433C141.507 52.8599 141.162 54.1564 140.472 55.3225C139.777 56.4936 138.852 57.4235 137.698 58.1124C136.54 58.8013 135.233 59.158 133.779 59.1826ZM131.523 37.9634L131.479 54.6804H133.779C134.691 54.6804 135.46 54.3606 136.086 53.721C136.712 53.0813 137.025 52.3186 137.025 51.433V40.8049C137.025 40.0177 136.737 39.3337 136.16 38.7531C135.583 38.1774 134.9 37.9019 134.112 37.9265L131.523 37.9634ZM153.036 59.2195H148.562C148.464 59.2195 148.402 59.158 148.377 59.035L143.275 33.6827C143.25 33.5843 143.299 33.535 143.422 33.535H147.601C147.699 33.535 147.761 33.5843 147.786 33.6827L150.818 50.5842L153.776 33.6827C153.801 33.5843 153.862 33.535 153.961 33.535H158.102C158.226 33.535 158.275 33.5843 158.25 33.6827L153.221 59.035C153.197 59.158 153.135 59.2195 153.036 59.2195ZM172.523 59.2195H160.58C160.481 59.2195 160.432 59.158 160.432 59.035L160.469 33.6827C160.469 33.5843 160.518 33.535 160.617 33.535H172.486C172.585 33.535 172.634 33.5966 172.634 33.7196V37.8527C172.634 37.9511 172.585 38.0003 172.486 38.0003H164.906V43.7572H172.486C172.585 43.7572 172.634 43.8064 172.634 43.9048L172.671 48.0748C172.671 48.1732 172.622 48.2224 172.523 48.2224H164.906V54.6804H172.523C172.622 54.6804 172.671 54.7419 172.671 54.8649V59.0719C172.671 59.1703 172.622 59.2195 172.523 59.2195ZM179.993 59.2195H176.295C176.098 59.2195 175.999 59.1334 175.999 58.9612L175.962 33.8303C175.962 33.6335 176.061 33.535 176.258 33.535H179.586L185.835 48.0748L185.65 33.8303C185.65 33.6335 185.761 33.535 185.983 33.535H189.644C189.792 33.535 189.866 33.6335 189.866 33.8303L189.902 58.9981C189.902 59.1457 189.841 59.2195 189.718 59.2195H186.464L180.067 45.6392L180.325 58.9243C180.325 59.1211 180.215 59.2195 179.993 59.2195ZM200.996 59.2195H196.817C196.719 59.2195 196.669 59.158 196.669 59.035V38.0003H191.862C191.739 38.0003 191.677 37.9388 191.677 37.8158L191.714 33.6827C191.714 33.5843 191.764 33.535 191.862 33.535H205.913C206.037 33.535 206.098 33.5843 206.098 33.6827V37.8158C206.098 37.9388 206.049 38.0003 205.95 38.0003H201.106L201.143 59.035C201.143 59.158 201.094 59.2195 200.996 59.2195ZM214.707 59.5885C213.4 59.5885 212.192 59.249 211.083 58.57C209.974 57.8959 209.094 56.993 208.443 55.8613C207.787 54.7296 207.459 53.4872 207.459 52.1341L207.533 33.6827C207.533 33.5843 207.582 33.535 207.681 33.535H211.822C211.921 33.535 211.97 33.5843 211.97 33.6827V52.1341C211.97 52.9706 212.237 53.6767 212.769 54.2524C213.297 54.833 213.942 55.1233 214.707 55.1233C215.495 55.1233 216.156 54.833 216.689 54.2524C217.216 53.6767 217.48 52.9706 217.48 52.1341V33.6827C217.48 33.5843 217.529 33.535 217.628 33.535H221.769C221.868 33.535 221.917 33.5843 221.917 33.6827L221.991 52.1341C221.991 53.5118 221.666 54.7665 221.015 55.8982C220.359 57.0299 219.484 57.9279 218.39 58.5921C217.29 59.2564 216.062 59.5885 214.707 59.5885ZM229.239 59.2195H225.06C224.962 59.2195 224.912 59.158 224.912 59.035L224.986 33.6827C224.986 33.5843 225.036 33.535 225.134 33.535H232.603C233.935 33.535 235.162 33.8598 236.286 34.5093C237.406 35.1637 238.298 36.0371 238.964 37.1294C239.629 38.2266 239.962 39.4641 239.962 40.8418C239.962 41.7521 239.826 42.5689 239.555 43.2922C239.284 44.0204 238.964 44.6379 238.594 45.1447C238.224 45.6466 237.891 46.0205 237.595 46.2666C238.927 47.7427 239.592 49.4771 239.592 51.4699L239.629 59.035C239.629 59.158 239.567 59.2195 239.444 59.2195H235.266C235.167 59.2195 235.118 59.1826 235.118 59.1088V51.4699C235.118 50.5842 234.805 49.8142 234.179 49.1597C233.548 48.5103 232.776 48.1855 231.864 48.1855H229.423L229.386 59.035C229.386 59.158 229.337 59.2195 229.239 59.2195ZM229.423 37.9634V43.7572H232.603C233.368 43.7572 234.046 43.4742 234.637 42.9084C235.229 42.3425 235.525 41.6537 235.525 40.8418C235.525 40.0546 235.236 39.378 234.659 38.8122C234.078 38.2463 233.392 37.9634 232.603 37.9634H229.423ZM254.827 59.2195H242.883C242.784 59.2195 242.735 59.158 242.735 59.035L242.772 33.6827C242.772 33.5843 242.821 33.535 242.92 33.535H254.79C254.888 33.535 254.938 33.5966 254.938 33.7196V37.8527C254.938 37.9511 254.888 38.0003 254.79 38.0003H247.209V43.7572H254.79C254.888 43.7572 254.938 43.8064 254.938 43.9048L254.975 48.0748C254.975 48.1732 254.925 48.2224 254.827 48.2224H247.209V54.6804H254.827C254.925 54.6804 254.975 54.7419 254.975 54.8649V59.0719C254.975 59.1703 254.925 59.2195 254.827 59.2195Z" fill="white"/>
</g>
</g>
<g clip-path="url(#clip8_490_496)">
<g clip-path="url(#clip9_490_496)">
<path d="M77.4042 76.6296H71.6987V66.7568H77.4982L77.2963 67.8028H73.0235V70.9549H76.8317L76.6271 72.0009H73.0235V75.5863H77.6061L77.4042 76.6296ZM80.1532 76.6296H78.8285L81.5305 72.9311L79.0525 69.4865H80.5515L81.6854 71.2529L82.2108 72.2355H82.3464L82.9133 71.2529L84.1302 69.4865H85.4522L82.894 72.8703L85.6762 76.6296H84.1772L82.8248 74.6202L82.2523 73.5824H82.1168L81.5443 74.5954L80.1532 76.6296ZM92.0288 75.2965V76.0224C91.7485 76.2376 91.4167 76.4152 91.0332 76.5551C90.6478 76.6949 90.2275 76.7648 89.772 76.7648C89.2871 76.7648 88.8474 76.6802 88.4528 76.5109C88.0583 76.3435 87.7218 76.1088 87.4434 75.8071C87.165 75.5071 86.9502 75.1465 86.799 74.7251C86.6478 74.3056 86.5722 73.8465 86.5722 73.3478C86.5722 72.7682 86.6718 72.2337 86.8709 71.7442C87.0682 71.2548 87.3392 70.8325 87.684 70.4774C88.0288 70.1222 88.4344 69.8462 88.9009 69.6493C89.3692 69.4506 89.8716 69.3512 90.4081 69.3512C90.5335 69.3512 90.67 69.3568 90.8175 69.3678C90.9631 69.3788 91.1078 69.3982 91.2517 69.4258C91.3955 69.4534 91.5347 69.4865 91.6693 69.5251C91.8057 69.5619 91.9255 69.6079 92.0288 69.6631L91.7578 70.781L91.6084 70.8472C91.5199 70.781 91.4176 70.7184 91.3014 70.6595C91.1871 70.6006 91.0664 70.551 90.9391 70.5105C90.8101 70.47 90.6764 70.4378 90.5381 70.4139C90.4017 70.3881 90.268 70.3752 90.1371 70.3752C89.8366 70.3752 89.5517 70.435 89.2825 70.5546C89.0152 70.6742 88.7801 70.8472 88.5773 71.0735C88.3745 71.2999 88.215 71.5786 88.0989 71.9098C87.9809 72.2392 87.9218 72.6155 87.9218 73.0387C87.9218 73.4693 87.9845 73.8483 88.1099 74.1759C88.2334 74.5052 88.4031 74.7822 88.6188 75.0067C88.8345 75.2311 89.0908 75.4004 89.3876 75.5145C89.6845 75.6286 90.0062 75.6856 90.3528 75.6856C90.5612 75.6856 90.811 75.6599 91.1023 75.6083C91.3955 75.5568 91.7043 75.4529 92.0288 75.2965ZM94.0256 76.6296V65.8349H95.3088V76.6296H94.0256ZM97.6845 74.2311V69.4865H98.9677V74.0158C98.9677 74.2624 99.0028 74.4878 99.0728 74.692C99.1429 74.8962 99.2397 75.0729 99.3632 75.2219C99.4867 75.3691 99.6352 75.4832 99.8085 75.5642C99.9818 75.6452 100.174 75.6856 100.386 75.6856C100.571 75.6856 100.752 75.6544 100.929 75.5918C101.107 75.5292 101.279 75.4473 101.443 75.3461C101.607 75.2449 101.762 75.1281 101.908 74.9956C102.055 74.8631 102.192 74.7251 102.317 74.5816V69.4865H103.6V76.6296H102.602L102.383 75.4041C102.217 75.5568 102.04 75.7123 101.852 75.8706C101.662 76.0306 101.46 76.1769 101.247 76.3094C101.033 76.4419 100.807 76.5505 100.569 76.6351C100.329 76.7216 100.08 76.7648 99.8195 76.7648C99.5135 76.7648 99.2305 76.7041 98.9705 76.5827C98.7124 76.4612 98.4874 76.2892 98.2957 76.0665C98.1039 75.8439 97.9546 75.5771 97.8477 75.2661C97.7389 74.9533 97.6845 74.6083 97.6845 74.2311ZM105.531 76.3067L105.802 75.2275L105.92 75.1474C106.092 75.2413 106.273 75.325 106.463 75.3986C106.651 75.474 106.837 75.5366 107.021 75.5863C107.207 75.6341 107.389 75.6718 107.566 75.6994C107.743 75.727 107.908 75.7408 108.061 75.7408C108.273 75.7408 108.467 75.716 108.642 75.6663C108.819 75.6166 108.969 75.5467 109.093 75.4565C109.216 75.3664 109.313 75.2587 109.383 75.1336C109.453 75.0085 109.488 74.8696 109.488 74.7168C109.488 74.5236 109.434 74.3626 109.325 74.2338C109.216 74.105 109.074 73.9946 108.899 73.9026C108.724 73.8106 108.524 73.7315 108.299 73.6653C108.074 73.5972 107.844 73.5272 107.61 73.4555C107.376 73.3837 107.147 73.3028 106.922 73.2126C106.697 73.1224 106.497 73.0093 106.322 72.8731C106.145 72.7351 106.003 72.5686 105.896 72.3735C105.787 72.1785 105.732 71.9393 105.732 71.6559C105.732 71.3413 105.802 71.0441 105.943 70.7644C106.081 70.4829 106.276 70.2382 106.529 70.0302C106.782 69.8205 107.085 69.6549 107.439 69.5334C107.791 69.412 108.184 69.3512 108.617 69.3512C108.72 69.3512 108.844 69.3558 108.988 69.365C109.131 69.3742 109.284 69.389 109.447 69.4092C109.609 69.4294 109.774 69.4561 109.942 69.4892C110.111 69.5242 110.274 69.5656 110.431 69.6135L110.163 70.665L110 70.7616C109.874 70.6936 109.736 70.6347 109.585 70.585C109.434 70.5353 109.281 70.4958 109.126 70.4663C108.971 70.4369 108.819 70.4148 108.67 70.4001C108.522 70.3835 108.392 70.3752 108.28 70.3752C108.071 70.3752 107.883 70.3982 107.715 70.4442C107.546 70.4884 107.4 70.5519 107.278 70.6347C107.157 70.7193 107.063 70.8205 106.996 70.9383C106.928 71.0579 106.894 71.1941 106.894 71.3468C106.894 71.5437 106.948 71.7074 107.057 71.8381C107.164 71.9687 107.308 72.08 107.489 72.172C107.669 72.2641 107.873 72.3441 108.1 72.4122C108.327 72.4784 108.56 72.5474 108.8 72.6192C109.037 72.6909 109.27 72.7719 109.496 72.8621C109.723 72.9522 109.927 73.0672 110.108 73.2071C110.288 73.3451 110.432 73.5144 110.539 73.7149C110.648 73.9155 110.702 74.1593 110.702 74.4464C110.702 74.7831 110.627 75.0931 110.475 75.3765C110.324 75.6599 110.118 75.9046 109.856 76.1107C109.592 76.3168 109.283 76.4778 108.929 76.5937C108.575 76.7078 108.197 76.7648 107.793 76.7648C107.446 76.7648 107.076 76.7243 106.681 76.6434C106.288 76.5624 105.905 76.4502 105.531 76.3067ZM112.627 76.6296V69.4865H113.908V76.6296H112.627ZM113.274 67.9381C113.162 67.9381 113.056 67.9178 112.956 67.8774C112.857 67.8369 112.771 67.7808 112.699 67.709C112.627 67.6372 112.571 67.5526 112.53 67.4551C112.49 67.3594 112.469 67.2527 112.469 67.1349C112.469 67.019 112.493 66.9086 112.539 66.8037C112.583 66.7006 112.642 66.6114 112.716 66.536C112.791 66.4587 112.88 66.3989 112.981 66.3566C113.083 66.3142 113.189 66.2931 113.302 66.2931C113.409 66.2931 113.511 66.3142 113.609 66.3566C113.705 66.3989 113.789 66.4587 113.861 66.536C113.932 66.6114 113.989 66.6997 114.029 66.8009C114.07 66.9021 114.09 67.0089 114.09 67.1211C114.09 67.2425 114.068 67.3539 114.024 67.4551C113.978 67.5563 113.918 67.6418 113.844 67.7118C113.77 67.7817 113.684 67.8369 113.584 67.8774C113.486 67.9178 113.383 67.9381 113.274 67.9381ZM118.194 76.6296L115.523 69.4865H116.966L118.559 74.4326L118.858 75.6056H118.994L119.276 74.4326L120.882 69.4865H122.207L119.519 76.6296H118.194ZM129.235 75.2965V76.0224C129.063 76.1438 128.866 76.2505 128.643 76.3425C128.42 76.4345 128.189 76.5118 127.951 76.5744C127.714 76.6388 127.474 76.6866 127.232 76.7179C126.991 76.7492 126.767 76.7648 126.56 76.7648C126.101 76.7648 125.664 76.6885 125.249 76.5357C124.836 76.383 124.474 76.1585 124.163 75.8623C123.853 75.566 123.606 75.1989 123.421 74.761C123.237 74.3212 123.145 73.8161 123.145 73.2457C123.145 72.6587 123.242 72.1242 123.438 71.6421C123.633 71.1619 123.895 70.7524 124.223 70.4139C124.553 70.0735 124.933 69.8113 125.363 69.6273C125.792 69.4432 126.243 69.3512 126.715 69.3512C127.099 69.3512 127.455 69.4156 127.785 69.5445C128.117 69.6714 128.406 69.8637 128.651 70.1213C128.896 70.3771 129.088 70.6972 129.226 71.0818C129.366 71.4645 129.437 71.9126 129.437 72.426C129.437 72.529 129.432 72.6523 129.423 72.7958C129.413 72.9394 129.396 73.0893 129.37 73.2457H124.481C124.481 73.6321 124.55 73.9771 124.688 74.2808C124.824 74.5844 125.018 74.8401 125.269 75.0481C125.518 75.2578 125.815 75.417 126.162 75.5255C126.509 75.6323 126.891 75.6856 127.31 75.6856C127.413 75.6856 127.539 75.681 127.689 75.6718C127.836 75.6626 127.996 75.6452 128.167 75.6194C128.339 75.5918 128.517 75.5522 128.701 75.5007C128.885 75.4492 129.063 75.3811 129.235 75.2965ZM124.481 72.4508H128.222C128.222 72.1141 128.174 71.8169 128.079 71.5593C127.985 71.2999 127.856 71.0827 127.694 70.9079C127.532 70.7331 127.344 70.6006 127.13 70.5105C126.916 70.4203 126.688 70.3752 126.447 70.3752C126.176 70.3752 125.921 70.4304 125.684 70.5408C125.444 70.6512 125.236 70.8012 125.059 70.9907C124.88 71.1784 124.739 71.3983 124.635 71.6504C124.532 71.9025 124.481 72.1693 124.481 72.4508ZM135.77 71.5096V75.4179C135.895 75.4805 136.029 75.532 136.171 75.5725C136.313 75.6129 136.455 75.6452 136.597 75.6691C136.739 75.6948 136.874 75.7132 137.003 75.7243C137.134 75.7353 137.248 75.7408 137.343 75.7408C137.712 75.7408 138.051 75.6709 138.358 75.5311C138.666 75.3912 138.931 75.198 139.152 74.9515C139.372 74.7049 139.542 74.4142 139.664 74.0793C139.785 73.7444 139.846 73.3819 139.846 72.9918C139.846 72.6459 139.798 72.3174 139.703 72.0064C139.605 71.6973 139.467 71.4259 139.29 71.1922C139.112 70.9585 138.898 70.7727 138.649 70.6347C138.398 70.4985 138.122 70.4304 137.822 70.4304C137.448 70.4304 137.088 70.5307 136.743 70.7313C136.4 70.93 136.076 71.1895 135.77 71.5096ZM135.457 69.4865L135.687 70.7258C135.845 70.573 136.021 70.4157 136.212 70.2538C136.402 70.0937 136.61 69.9456 136.835 69.8094C137.06 69.6751 137.303 69.5656 137.565 69.481C137.827 69.3945 138.106 69.3512 138.403 69.3512C138.84 69.3512 139.23 69.4469 139.573 69.6383C139.917 69.8297 140.21 70.0836 140.452 70.4001C140.692 70.7166 140.876 71.08 141.005 71.4903C141.134 71.9025 141.199 72.3285 141.199 72.7682C141.199 73.3478 141.092 73.8824 140.878 74.3718C140.664 74.8613 140.375 75.2836 140.01 75.6387C139.644 75.9938 139.218 76.2698 138.729 76.4667C138.24 76.6655 137.721 76.7648 137.172 76.7648C136.947 76.7648 136.706 76.7492 136.45 76.7179C136.194 76.6866 135.967 76.6434 135.77 76.5882V80.2425H134.487V69.4865H135.457ZM143.129 76.6296V69.4865H144.128L144.329 71.6283C144.388 71.5161 144.45 71.4011 144.515 71.2833C144.581 71.1637 144.647 71.0478 144.711 70.9355C144.776 70.8233 144.84 70.7175 144.905 70.6181C144.967 70.5206 145.024 70.435 145.073 70.3614C145.171 70.2234 145.283 70.0928 145.408 69.9695C145.532 69.8462 145.665 69.7377 145.809 69.6438C145.953 69.5518 146.106 69.48 146.268 69.4285C146.43 69.377 146.604 69.3512 146.788 69.3512C146.919 69.3512 147.042 69.366 147.159 69.3954C147.277 69.4248 147.373 69.4736 147.449 69.5417L147.314 70.7396C147.232 70.7175 147.153 70.7028 147.076 70.6954C146.996 70.6899 146.918 70.6871 146.841 70.6871C146.522 70.6871 146.244 70.7386 146.008 70.8417C145.772 70.9447 145.56 71.0846 145.372 71.2612C145.186 71.4397 145.017 71.6476 144.866 71.885C144.715 72.1242 144.563 72.3809 144.41 72.6551V76.6296H143.129ZM149.036 76.6296V69.4865H150.317V76.6296H149.036ZM149.684 67.9381C149.571 67.9381 149.465 67.9178 149.366 67.8774C149.266 67.8369 149.18 67.7808 149.108 67.709C149.036 67.6372 148.98 67.5526 148.94 67.4551C148.899 67.3594 148.879 67.2527 148.879 67.1349C148.879 67.019 148.902 66.9086 148.948 66.8037C148.992 66.7006 149.051 66.6114 149.125 66.536C149.201 66.4587 149.289 66.3989 149.39 66.3566C149.492 66.3142 149.599 66.2931 149.711 66.2931C149.818 66.2931 149.921 66.3142 150.018 66.3566C150.114 66.3989 150.198 66.4587 150.27 66.536C150.342 66.6114 150.398 66.6997 150.439 66.8009C150.479 66.9021 150.499 67.0089 150.499 67.1211C150.499 67.2425 150.477 67.3539 150.433 67.4551C150.387 67.5563 150.327 67.6418 150.253 67.7118C150.18 67.7817 150.093 67.8369 149.993 67.8774C149.896 67.9178 149.792 67.9381 149.684 67.9381ZM154.604 76.6296L151.932 69.4865H153.376L154.969 74.4326L155.267 75.6056H155.403L155.685 74.4326L157.292 69.4865H158.617L155.928 76.6296H154.604ZM164.004 75.5642C163.892 75.6599 163.755 75.7758 163.595 75.912C163.434 76.0481 163.255 76.1797 163.055 76.3067C162.854 76.4318 162.636 76.5394 162.4 76.6296C162.164 76.7197 161.913 76.7648 161.648 76.7648C161.408 76.7648 161.175 76.7234 160.948 76.6406C160.721 76.556 160.519 76.4318 160.342 76.268C160.167 76.1042 160.027 75.9009 159.922 75.658C159.815 75.417 159.762 75.1391 159.762 74.8245C159.762 74.6313 159.786 74.4353 159.833 74.2366C159.881 74.0397 159.962 73.8502 160.074 73.668C160.187 73.4858 160.334 73.3147 160.517 73.1546C160.699 72.9964 160.924 72.8575 161.191 72.7379C161.459 72.6183 161.775 72.5253 162.14 72.4591C162.505 72.391 162.924 72.357 163.396 72.357H164.004V71.7387C164.004 71.5308 163.968 71.344 163.896 71.1784C163.824 71.0128 163.724 70.8702 163.595 70.7506C163.466 70.631 163.313 70.539 163.136 70.4746C162.957 70.4084 162.759 70.3752 162.544 70.3752C162.382 70.3752 162.21 70.3936 162.029 70.4304C161.847 70.4654 161.664 70.5169 161.482 70.585C161.299 70.6531 161.125 70.7322 160.959 70.8224C160.791 70.9107 160.645 71.0091 160.519 71.1177L160.398 71.0515L160.127 70.0661C160.388 69.9226 160.641 69.8048 160.884 69.7128C161.128 69.6208 161.36 69.5481 161.581 69.4948C161.804 69.4396 162.017 69.4018 162.22 69.3816C162.423 69.3614 162.617 69.3512 162.801 69.3512C163.644 69.3512 164.269 69.5251 164.676 69.8729C165.084 70.2225 165.287 70.7451 165.287 71.4406V74.9597C165.287 75.0168 165.291 75.0867 165.298 75.1695C165.308 75.2541 165.33 75.3342 165.365 75.4096C165.398 75.4869 165.447 75.5522 165.511 75.6056C165.578 75.659 165.667 75.6856 165.78 75.6856C165.842 75.6856 165.925 75.6755 166.028 75.6553C166.132 75.635 166.235 75.6001 166.338 75.5504V76.2652C166.122 76.4143 165.906 76.5348 165.688 76.6268C165.469 76.7188 165.258 76.7648 165.055 76.7648C164.871 76.7648 164.719 76.728 164.601 76.6544C164.482 76.579 164.382 76.4833 164.303 76.3674C164.225 76.2496 164.163 76.1199 164.117 75.9782C164.073 75.8365 164.035 75.6985 164.004 75.5642ZM164.004 74.703V73.1381H163.49C162.962 73.1381 162.543 73.1758 162.231 73.2512C161.918 73.3248 161.679 73.4233 161.515 73.5466C161.351 73.6699 161.243 73.8125 161.191 73.9744C161.14 74.1363 161.114 74.3047 161.114 74.4795C161.114 74.669 161.141 74.8374 161.194 74.9846C161.248 75.1336 161.323 75.2606 161.421 75.3655C161.517 75.4722 161.633 75.5522 161.769 75.6056C161.904 75.659 162.05 75.6856 162.206 75.6856C162.328 75.6856 162.453 75.6709 162.582 75.6415C162.71 75.612 162.847 75.5605 162.995 75.4869C163.14 75.4133 163.295 75.3139 163.459 75.1888C163.623 75.0619 163.805 74.8999 164.004 74.703ZM168.39 74.8383V70.5105H166.947L167.054 69.8508C167.405 69.7791 167.686 69.688 167.898 69.5776C168.11 69.4672 168.284 69.3292 168.421 69.1636C168.559 68.998 168.674 68.7965 168.766 68.5591C168.859 68.3236 168.963 68.042 169.079 67.7145H169.674V69.4865H172.268L171.997 70.5105H169.674V74.5016C169.674 74.7168 169.707 74.899 169.773 75.0481C169.838 75.1989 169.928 75.3222 170.044 75.4179C170.162 75.5117 170.304 75.5798 170.47 75.6222C170.638 75.6645 170.822 75.6856 171.023 75.6856C171.231 75.6856 171.438 75.6663 171.643 75.6277C171.847 75.5909 172.042 75.5384 172.226 75.4703V76.199C171.942 76.383 171.644 76.5229 171.333 76.6185C171.019 76.7161 170.7 76.7648 170.376 76.7648C170.074 76.7648 169.802 76.7216 169.56 76.6351C169.317 76.5505 169.108 76.4272 168.935 76.2652C168.762 76.1033 168.628 75.9028 168.534 75.6636C168.438 75.4225 168.39 75.1474 168.39 74.8383ZM179.674 75.2965V76.0224C179.503 76.1438 179.305 76.2505 179.082 76.3425C178.859 76.4345 178.629 76.5118 178.391 76.5744C178.151 76.6388 177.911 76.6866 177.672 76.7179C177.43 76.7492 177.206 76.7648 177 76.7648C176.541 76.7648 176.104 76.6885 175.689 76.5357C175.276 76.383 174.913 76.1585 174.602 75.8623C174.292 75.566 174.045 75.1989 173.861 74.761C173.674 74.3212 173.581 73.8161 173.581 73.2457C173.581 72.6587 173.68 72.1242 173.877 71.6421C174.073 71.1619 174.335 70.7524 174.663 70.4139C174.991 70.0735 175.37 69.8113 175.799 69.6273C176.231 69.4432 176.683 69.3512 177.155 69.3512C177.538 69.3512 177.895 69.4156 178.225 69.5445C178.555 69.6714 178.842 69.8637 179.088 70.1213C179.335 70.3771 179.527 70.6972 179.666 71.0818C179.806 71.4645 179.876 71.9126 179.876 72.426C179.876 72.529 179.871 72.6523 179.862 72.7958C179.853 72.9394 179.834 73.0893 179.807 73.2457H174.92C174.92 73.6321 174.988 73.9771 175.125 74.2808C175.263 74.5844 175.456 74.8401 175.705 75.0481C175.956 75.2578 176.255 75.417 176.601 75.5255C176.948 75.6323 177.331 75.6856 177.749 75.6856C177.852 75.6856 177.979 75.681 178.128 75.6718C178.276 75.6626 178.435 75.6452 178.606 75.6194C178.778 75.5918 178.956 75.5522 179.14 75.5007C179.325 75.4492 179.503 75.3811 179.674 75.2965ZM174.92 72.4508H178.659C178.659 72.1141 178.612 71.8169 178.518 71.5593C178.424 71.2999 178.296 71.0827 178.134 70.9079C177.971 70.7331 177.783 70.6006 177.569 70.5105C177.355 70.4203 177.127 70.3752 176.883 70.3752C176.614 70.3752 176.36 70.4304 176.12 70.5408C175.882 70.6512 175.675 70.8012 175.498 70.9907C175.319 71.1784 175.178 71.3983 175.075 71.6504C174.972 71.9025 174.92 72.1693 174.92 72.4508ZM190.571 75.2965V76.0224C190.399 76.1438 190.202 76.2505 189.979 76.3425C189.756 76.4345 189.525 76.5118 189.287 76.5744C189.048 76.6388 188.808 76.6866 188.568 76.7179C188.327 76.7492 188.103 76.7648 187.896 76.7648C187.437 76.7648 187 76.6885 186.585 76.5357C186.172 76.383 185.81 76.1585 185.498 75.8623C185.189 75.566 184.942 75.1989 184.757 74.761C184.571 74.3212 184.478 73.8161 184.478 73.2457C184.478 72.6587 184.577 72.1242 184.774 71.6421C184.969 71.1619 185.231 70.7524 185.559 70.4139C185.887 70.0735 186.266 69.8113 186.696 69.6273C187.127 69.4432 187.579 69.3512 188.051 69.3512C188.433 69.3512 188.789 69.4156 189.121 69.5445C189.451 69.6714 189.739 69.8637 189.984 70.1213C190.229 70.3771 190.422 70.6972 190.562 71.0818C190.702 71.4645 190.772 71.9126 190.772 72.426C190.772 72.529 190.768 72.6523 190.759 72.7958C190.749 72.9394 190.731 73.0893 190.703 73.2457H185.816C185.816 73.6321 185.885 73.9771 186.021 74.2808C186.159 74.5844 186.353 74.8401 186.602 75.0481C186.853 75.2578 187.151 75.417 187.498 75.5255C187.845 75.6323 188.227 75.6856 188.646 75.6856C188.749 75.6856 188.874 75.681 189.022 75.6718C189.171 75.6626 189.332 75.6452 189.503 75.6194C189.674 75.5918 189.852 75.5522 190.037 75.5007C190.221 75.4492 190.399 75.3811 190.571 75.2965ZM185.816 72.4508H189.556C189.556 72.1141 189.509 71.8169 189.415 71.5593C189.32 71.2999 189.192 71.0827 189.03 70.9079C188.868 70.7331 188.68 70.6006 188.466 70.5105C188.252 70.4203 188.023 70.3752 187.78 70.3752C187.511 70.3752 187.256 70.4304 187.017 70.5408C186.779 70.6512 186.571 70.8012 186.394 70.9907C186.216 71.1784 186.075 71.3983 185.971 71.6504C185.868 71.9025 185.816 72.1693 185.816 72.4508ZM193.148 76.6296H191.823L194.525 72.9311L192.047 69.4865H193.546L194.68 71.2529L195.208 72.2355H195.341L195.908 71.2529L197.125 69.4865H198.447L195.889 72.8703L198.671 76.6296H197.172L195.822 74.6202L195.247 73.5824H195.112L194.539 74.5954L193.148 76.6296ZM201.478 71.5096V75.4179C201.605 75.4805 201.74 75.532 201.882 75.5725C202.024 75.6129 202.165 75.6452 202.305 75.6691C202.447 75.6948 202.583 75.7132 202.714 75.7243C202.845 75.7353 202.958 75.7408 203.052 75.7408C203.421 75.7408 203.76 75.6709 204.07 75.5311C204.377 75.3912 204.642 75.198 204.863 74.9515C205.083 74.7049 205.253 74.4142 205.375 74.0793C205.497 73.7444 205.557 73.3819 205.557 72.9918C205.557 72.6459 205.509 72.3174 205.411 72.0064C205.315 71.6973 205.179 71.4259 205.002 71.1922C204.823 70.9585 204.609 70.7727 204.36 70.6347C204.109 70.4985 203.834 70.4304 203.533 70.4304C203.159 70.4304 202.799 70.5307 202.454 70.7313C202.11 70.93 201.784 71.1895 201.478 71.5096ZM201.168 69.4865L201.398 70.7258C201.557 70.573 201.731 70.4157 201.921 70.2538C202.112 70.0937 202.321 69.9456 202.546 69.8094C202.771 69.6751 203.014 69.5656 203.276 69.481C203.536 69.3945 203.815 69.3512 204.114 69.3512C204.549 69.3512 204.939 69.4469 205.284 69.6383C205.628 69.8297 205.921 70.0836 206.16 70.4001C206.402 70.7166 206.587 71.08 206.716 71.4903C206.843 71.9025 206.907 72.3285 206.907 72.7682C206.907 73.3478 206.8 73.8824 206.586 74.3718C206.372 74.8613 206.084 75.2836 205.721 75.6387C205.356 75.9938 204.929 76.2698 204.44 76.4667C203.952 76.6655 203.433 76.7648 202.883 76.7648C202.658 76.7648 202.418 76.7492 202.161 76.7179C201.905 76.6866 201.677 76.6434 201.478 76.5882V80.2425H200.198V69.4865H201.168ZM214.482 75.2965V76.0224C214.312 76.1438 214.116 76.2505 213.893 76.3425C213.67 76.4345 213.439 76.5118 213.199 76.5744C212.961 76.6388 212.721 76.6866 212.48 76.7179C212.24 76.7492 212.016 76.7648 211.808 76.7648C211.349 76.7648 210.913 76.6885 210.5 76.5357C210.085 76.383 209.722 76.1585 209.413 75.8623C209.101 75.566 208.853 75.1989 208.669 74.761C208.484 74.3212 208.392 73.8161 208.392 73.2457C208.392 72.6587 208.49 72.1242 208.685 71.6421C208.883 71.1619 209.145 70.7524 209.474 70.4139C209.802 70.0735 210.181 69.8113 210.61 69.6273C211.04 69.4432 211.492 69.3512 211.965 69.3512C212.347 69.3512 212.704 69.4156 213.036 69.5445C213.366 69.6714 213.653 69.8637 213.899 70.1213C214.144 70.3771 214.336 70.6972 214.477 71.0818C214.617 71.4645 214.687 71.9126 214.687 72.426C214.687 72.529 214.682 72.6523 214.673 72.7958C214.664 72.9394 214.645 73.0893 214.618 73.2457H209.731C209.731 73.6321 209.799 73.9771 209.935 74.2808C210.072 74.5844 210.265 74.8401 210.516 75.0481C210.765 75.2578 211.063 75.417 211.409 75.5255C211.756 75.6323 212.139 75.6856 212.557 75.6856C212.662 75.6856 212.789 75.681 212.936 75.6718C213.085 75.6626 213.246 75.6452 213.417 75.6194C213.587 75.5918 213.764 75.5522 213.948 75.5007C214.135 75.4492 214.312 75.3811 214.482 75.2965ZM209.731 72.4508H213.47C213.47 72.1141 213.423 71.8169 213.329 71.5593C213.235 71.2999 213.107 71.0827 212.944 70.9079C212.782 70.7331 212.594 70.6006 212.38 70.5105C212.166 70.4203 211.938 70.3752 211.694 70.3752C211.423 70.3752 211.169 70.4304 210.931 70.5408C210.693 70.6512 210.485 70.8012 210.306 70.9907C210.129 71.1784 209.989 71.3983 209.886 71.6504C209.782 71.9025 209.731 72.1693 209.731 72.4508ZM216.684 76.6296V69.4865H217.682L217.884 71.6283C217.943 71.5161 218.005 71.4011 218.072 71.2833C218.136 71.1637 218.201 71.0478 218.265 70.9355C218.332 70.8233 218.396 70.7175 218.459 70.6181C218.522 70.5206 218.578 70.435 218.628 70.3614C218.727 70.2234 218.839 70.0928 218.962 69.9695C219.086 69.8462 219.22 69.7377 219.363 69.6438C219.507 69.5518 219.66 69.48 219.822 69.4285C219.985 69.377 220.158 69.3512 220.342 69.3512C220.473 69.3512 220.597 69.366 220.713 69.3954C220.831 69.4248 220.928 69.4736 221.003 69.5417L220.871 70.7396C220.79 70.7175 220.709 70.7028 220.63 70.6954C220.551 70.6899 220.473 70.6871 220.398 70.6871C220.077 70.6871 219.799 70.7386 219.563 70.8417C219.327 70.9447 219.115 71.0846 218.929 71.2612C218.741 71.4397 218.572 71.6476 218.423 71.885C218.272 72.1242 218.12 72.3809 217.967 72.6551V76.6296H216.684ZM222.591 76.6296V69.4865H223.874V76.6296H222.591ZM223.238 67.9381C223.126 67.9381 223.02 67.9178 222.923 67.8774C222.823 67.8369 222.737 67.7808 222.666 67.709C222.594 67.6372 222.537 67.5526 222.497 67.4551C222.456 67.3594 222.436 67.2527 222.436 67.1349C222.436 67.019 222.458 66.9086 222.502 66.8037C222.548 66.7006 222.608 66.6114 222.682 66.536C222.756 66.4587 222.843 66.3989 222.945 66.3566C223.046 66.3142 223.153 66.2931 223.266 66.2931C223.374 66.2931 223.477 66.3142 223.573 66.3566C223.67 66.3989 223.755 66.4587 223.827 66.536C223.899 66.6114 223.955 66.6997 223.996 66.8009C224.036 66.9021 224.057 67.0089 224.057 67.1211C224.057 67.2425 224.034 67.3539 223.988 67.4551C223.943 67.5563 223.884 67.6418 223.811 67.7118C223.735 67.7817 223.648 67.8369 223.551 67.8774C223.451 67.9178 223.347 67.9381 223.238 67.9381ZM231.914 75.2965V76.0224C231.742 76.1438 231.546 76.2505 231.325 76.3425C231.102 76.4345 230.87 76.5118 230.631 76.5744C230.393 76.6388 230.153 76.6866 229.911 76.7179C229.672 76.7492 229.448 76.7648 229.239 76.7648C228.78 76.7648 228.344 76.6885 227.931 76.5357C227.516 76.383 227.154 76.1585 226.844 75.8623C226.533 75.566 226.285 75.1989 226.1 74.761C225.916 74.3212 225.824 73.8161 225.824 73.2457C225.824 72.6587 225.922 72.1242 226.117 71.6421C226.312 71.1619 226.575 70.7524 226.905 70.4139C227.233 70.0735 227.612 69.8113 228.042 69.6273C228.472 69.4432 228.923 69.3512 229.397 69.3512C229.779 69.3512 230.135 69.4156 230.467 69.5445C230.797 69.6714 231.085 69.8637 231.33 70.1213C231.575 70.3771 231.768 70.6972 231.908 71.0818C232.047 71.4645 232.116 71.9126 232.116 72.426C232.116 72.529 232.112 72.6523 232.105 72.7958C232.095 72.9394 232.077 73.0893 232.049 73.2457H227.16C227.16 73.6321 227.229 73.9771 227.367 74.2808C227.504 74.5844 227.697 74.8401 227.948 75.0481C228.197 75.2578 228.495 75.417 228.841 75.5255C229.188 75.6323 229.57 75.6856 229.989 75.6856C230.094 75.6856 230.22 75.681 230.368 75.6718C230.517 75.6626 230.677 75.6452 230.846 75.6194C231.018 75.5918 231.196 75.5522 231.38 75.5007C231.564 75.4492 231.742 75.3811 231.914 75.2965ZM227.16 72.4508H230.902C230.902 72.1141 230.855 71.8169 230.761 71.5593C230.665 71.2999 230.536 71.0827 230.376 70.9079C230.214 70.7331 230.026 70.6006 229.812 70.5105C229.598 70.4203 229.369 70.3752 229.126 70.3752C228.855 70.3752 228.601 70.4304 228.363 70.5408C228.125 70.6512 227.917 70.8012 227.738 70.9907C227.561 71.1784 227.421 71.3983 227.317 71.6504C227.212 71.9025 227.16 72.1693 227.16 72.4508ZM234.115 76.6296V69.4865H235.114L235.315 70.7258C235.474 70.5786 235.655 70.424 235.858 70.2621C236.06 70.1001 236.28 69.952 236.516 69.8177C236.752 69.6815 237.003 69.5702 237.268 69.4837C237.534 69.3954 237.805 69.3512 238.084 69.3512C238.414 69.3512 238.71 69.4147 238.972 69.5417C239.235 69.6668 239.461 69.8425 239.649 70.0689C239.835 70.297 239.979 70.5666 240.081 70.8776C240.182 71.1904 240.233 71.5308 240.233 71.8988V76.6296H238.95V72.0202C238.95 71.759 238.913 71.5289 238.839 71.3302C238.763 71.1297 238.661 70.9631 238.532 70.8306C238.401 70.6982 238.245 70.5988 238.065 70.5326C237.884 70.4645 237.688 70.4304 237.478 70.4304C237.104 70.4304 236.75 70.5289 236.416 70.7258C236.084 70.9245 235.745 71.1858 235.398 71.5096V76.6296H234.115ZM247.617 75.2965V76.0224C247.339 76.2376 247.007 76.4152 246.621 76.5551C246.238 76.6949 245.818 76.7648 245.363 76.7648C244.876 76.7648 244.436 76.6802 244.044 76.5109C243.649 76.3435 243.313 76.1088 243.034 75.8071C242.754 75.5071 242.539 75.1465 242.39 74.7251C242.239 74.3056 242.163 73.8465 242.163 73.3478C242.163 72.7682 242.262 72.2337 242.459 71.7442C242.658 71.2548 242.929 70.8325 243.272 70.4774C243.617 70.1222 244.023 69.8462 244.492 69.6493C244.96 69.4506 245.463 69.3512 245.999 69.3512C246.124 69.3512 246.26 69.3568 246.406 69.3678C246.553 69.3788 246.699 69.3982 246.843 69.4258C246.986 69.4534 247.126 69.4865 247.26 69.5251C247.395 69.5619 247.514 69.6079 247.617 69.6631L247.349 70.781L247.199 70.8472C247.109 70.781 247.007 70.7184 246.892 70.6595C246.778 70.6006 246.656 70.551 246.527 70.5105C246.4 70.47 246.267 70.4378 246.129 70.4139C245.993 70.3881 245.859 70.3752 245.728 70.3752C245.426 70.3752 245.141 70.435 244.873 70.5546C244.606 70.6742 244.371 70.8472 244.168 71.0735C243.965 71.2999 243.806 71.5786 243.69 71.9098C243.572 72.2392 243.513 72.6155 243.513 73.0387C243.513 73.4693 243.575 73.8483 243.698 74.1759C243.822 74.5052 243.992 74.7822 244.21 75.0067C244.425 75.2311 244.682 75.4004 244.979 75.5145C245.275 75.6286 245.597 75.6856 245.944 75.6856C246.15 75.6856 246.4 75.6599 246.693 75.6083C246.986 75.5568 247.294 75.4529 247.617 75.2965ZM255.192 75.2965V76.0224C255.022 76.1438 254.826 76.2505 254.603 76.3425C254.38 76.4345 254.149 76.5118 253.911 76.5744C253.672 76.6388 253.432 76.6866 253.192 76.7179C252.951 76.7492 252.727 76.7648 252.52 76.7648C252.061 76.7648 251.624 76.6885 251.21 76.5357C250.795 76.383 250.432 76.1585 250.123 75.8623C249.813 75.566 249.565 75.1989 249.379 74.761C249.194 74.3212 249.102 73.8161 249.102 73.2457C249.102 72.6587 249.201 72.1242 249.398 71.6421C249.593 71.1619 249.855 70.7524 250.183 70.4139C250.512 70.0735 250.891 69.8113 251.32 69.6273C251.75 69.4432 252.201 69.3512 252.675 69.3512C253.057 69.3512 253.414 69.4156 253.746 69.5445C254.076 69.6714 254.363 69.8637 254.608 70.1213C254.854 70.3771 255.046 70.6972 255.186 71.0818C255.327 71.4645 255.397 71.9126 255.397 72.426C255.397 72.529 255.392 72.6523 255.383 72.7958C255.374 72.9394 255.355 73.0893 255.327 73.2457H250.441C250.441 73.6321 250.509 73.9771 250.645 74.2808C250.784 74.5844 250.977 74.8401 251.226 75.0481C251.477 75.2578 251.776 75.417 252.122 75.5255C252.469 75.6323 252.851 75.6856 253.27 75.6856C253.373 75.6856 253.499 75.681 253.646 75.6718C253.795 75.6626 253.956 75.6452 254.127 75.6194C254.297 75.5918 254.475 75.5522 254.661 75.5007C254.845 75.4492 255.022 75.3811 255.192 75.2965ZM250.441 72.4508H254.18C254.18 72.1141 254.133 71.8169 254.039 71.5593C253.945 71.2999 253.817 71.0827 253.654 70.9079C253.492 70.7331 253.304 70.6006 253.09 70.5105C252.876 70.4203 252.648 70.3752 252.404 70.3752C252.135 70.3752 251.881 70.4304 251.641 70.5408C251.403 70.6512 251.195 70.8012 251.016 70.9907C250.839 71.1784 250.699 71.3983 250.596 71.6504C250.492 71.9025 250.441 72.1693 250.441 72.4508Z" fill="white"/>
</g>
</g>
</g>
</g>
<g clip-path="url(#clip10_490_496)">
<g clip-path="url(#clip11_490_496)">
<path d="M267.928 56.6859C267.928 25.3791 293.358 0 324.727 0C356.097 0 381.527 25.3791 381.527 56.6859C381.527 87.9926 356.097 113.372 324.727 113.372C293.358 113.372 267.928 87.9926 267.928 56.6859ZM324.727 110.985C354.776 110.985 379.136 86.6748 379.136 56.6859C379.136 26.697 354.776 2.38622 324.727 2.38622C294.678 2.38622 270.319 26.697 270.319 56.6859C270.319 86.6748 294.678 110.985 324.727 110.985Z" fill="#FF1F1F"/>
<g clip-path="url(#clip12_490_496)">
<g clip-path="url(#clip13_490_496)">
<path d="M306.697 65.4361H341.846C342.282 65.4361 342.636 65.0828 342.636 64.6475C342.636 64.2121 342.282 63.8588 341.846 63.8588H340.396V60.2554L342.198 62.063C342.353 62.2176 342.555 62.2949 342.758 62.2949C342.96 62.2949 343.161 62.2184 343.316 62.0654C343.625 61.7578 343.627 61.2586 343.319 60.9494L340.396 58.0179V56.4808L342.198 58.2892C342.352 58.4438 342.555 58.5211 342.758 58.5211C342.96 58.5211 343.161 58.4446 343.316 58.2916C343.625 57.984 343.627 57.4848 343.319 57.1756L340.396 54.2442V52.7071L342.198 54.5147C342.353 54.6693 342.555 54.7465 342.758 54.7465C342.96 54.7465 343.161 54.67 343.316 54.517C343.625 54.2095 343.627 53.7102 343.319 53.4011L340.166 50.2393C340.017 50.0911 339.815 50.0075 339.605 50.0075C339.395 50.0075 339.194 50.0911 339.045 50.2393L335.892 53.4011C335.584 53.7102 335.585 54.2095 335.894 54.517C336.204 54.8238 336.703 54.8231 337.012 54.5147L338.815 52.7071V54.2442L335.892 57.1756C335.584 57.4848 335.585 57.984 335.894 58.2916C336.205 58.5992 336.705 58.5976 337.012 58.2892L338.815 56.4808V58.0179L335.892 60.9494C335.584 61.2586 335.585 61.7578 335.894 62.0654C336.204 62.3722 336.703 62.3714 337.012 62.063L338.815 60.2554V63.8588H334.955L321.829 40.5151C321.549 40.0174 320.73 40.0174 320.45 40.5151L307.324 63.8588H306.697C306.261 63.8588 305.907 64.2121 305.907 64.6475C305.907 65.0828 306.261 65.4361 306.697 65.4361ZM321.14 42.5128L324.976 49.3363L324.229 50.2409L323.291 49.106C323.14 48.9246 322.917 48.8189 322.681 48.8189C322.445 48.8189 322.221 48.9246 322.072 49.106L321.137 50.2393L320.202 49.106C319.902 48.7424 319.282 48.7424 318.982 49.106L318.047 50.2393L317.303 49.3371L321.14 42.5128ZM316.472 50.8119L317.436 51.9807C317.737 52.3443 318.356 52.3443 318.657 51.9807L319.591 50.8474L320.526 51.9807C320.827 52.3443 321.446 52.3443 321.746 51.9807L322.682 50.8466L323.62 51.9807C323.77 52.1621 323.994 52.2678 324.229 52.2678C324.465 52.2678 324.689 52.1629 324.839 51.9807L325.806 50.8103L333.143 63.858H309.136L316.472 50.8119Z" fill="#FF1F1F"/>
<path d="M333.473 48.9703C335.767 48.9703 337.853 47.5279 338.664 45.3819C338.774 45.0917 338.703 44.7644 338.483 44.5459C338.263 44.3267 337.936 44.2557 337.645 44.3653C337.19 44.5365 336.72 44.624 336.247 44.624C334.057 44.624 332.275 42.8464 332.275 40.6602C332.275 40.1886 332.362 39.7193 332.534 39.2642C332.643 38.974 332.573 38.6475 332.353 38.4283C332.134 38.2098 331.805 38.138 331.516 38.2477C329.365 39.0568 327.92 41.1389 327.92 43.4284C327.921 46.4845 330.412 48.9703 333.473 48.9703ZM330.696 40.6042C330.696 40.6223 330.696 40.6413 330.696 40.6594C330.696 43.7328 333.202 46.2368 336.304 46.1998C335.57 46.9443 334.554 47.3922 333.474 47.3922C331.284 47.3922 329.502 45.6146 329.502 43.4284C329.501 42.3511 329.95 41.3369 330.696 40.6042Z" fill="#FF1F1F"/>
<path d="M321.891 87.085C322.648 87.8413 323.656 88.2577 324.727 88.2577C325.799 88.2577 326.806 87.8413 327.564 87.085L355.188 59.5164C355.945 58.7608 356.363 57.7553 356.363 56.6859C356.363 55.6164 355.945 54.6117 355.188 53.8553L327.564 26.2868C326.807 25.5304 325.799 25.114 324.727 25.114C323.656 25.114 322.649 25.5304 321.891 26.2868L294.267 53.8553C293.51 54.6117 293.092 55.6172 293.092 56.6859C293.092 57.7545 293.51 58.7601 294.267 59.5164L321.891 87.085ZM295.385 54.9705L323.009 27.4019C323.483 26.9287 324.105 26.6929 324.727 26.6929C325.35 26.6929 325.972 26.9295 326.446 27.4019L354.07 54.9705C355.018 55.9161 355.018 57.4548 354.07 58.4012L326.446 85.9698C325.499 86.9154 323.957 86.9154 323.009 85.9698L295.385 58.4012C294.437 57.4556 294.437 55.9161 295.385 54.9705Z" fill="#FF1F1F"/>
</g>
</g>
</g>
</g>
</g>
</g>
</g>
</g>
<defs>
<clipPath id="clip0_490_496">
<rect width="440" height="113" fill="white"/>
</clipPath>
<clipPath id="clip1_490_496">
<rect width="440" height="113" fill="white" transform="translate(-58 0.185852)"/>
</clipPath>
<clipPath id="clip2_490_496">
<rect width="439.053" height="113.372" fill="white" transform="translate(-57.5264)"/>
</clipPath>
<clipPath id="clip3_490_496">
<rect width="439.053" height="113.372" fill="white" transform="translate(-57.5264)"/>
</clipPath>
<clipPath id="clip4_490_496">
<rect width="312.936" height="47.1135" fill="white" transform="translate(-57.5264 33.1291)"/>
</clipPath>
<clipPath id="clip5_490_496">
<rect width="312.936" height="47.1135" fill="white" transform="translate(-57.5264 33.1291)"/>
</clipPath>
<clipPath id="clip6_490_496">
<rect width="312.936" height="26.4594" fill="white" transform="translate(-57.5264 33.1291)"/>
</clipPath>
<clipPath id="clip7_490_496">
<rect width="312.936" height="26.4594" fill="white" transform="translate(-57.5264 33.1291)"/>
</clipPath>
<clipPath id="clip8_490_496">
<rect width="183.725" height="14.4076" fill="white" transform="translate(71.6851 65.8349)"/>
</clipPath>
<clipPath id="clip9_490_496">
<rect width="183.725" height="14.4076" fill="white" transform="translate(71.6851 65.8349)"/>
</clipPath>
<clipPath id="clip10_490_496">
<rect width="113.599" height="113.372" fill="white" transform="translate(267.928)"/>
</clipPath>
<clipPath id="clip11_490_496">
<rect width="113.599" height="113.372" fill="white" transform="translate(267.928)"/>
</clipPath>
<clipPath id="clip12_490_496">
<rect width="63.2704" height="63.1437" fill="white" transform="translate(293.092 25.114)"/>
</clipPath>
<clipPath id="clip13_490_496">
<rect width="63.2704" height="63.1437" fill="white" transform="translate(293.092 25.114)"/>
</clipPath>
</defs>
</svg>
